<svg width="930" height="128" viewBox="0 0 930 128" fill="none" xmlns="http://www.w3.org/2000/svg">
<g clip-path="url(#clip0_3935_1411)">
<path d="M46.08 59L46.016 32.12L32.832 54.264H28.16L15.04 32.696V59H5.312V14.2H13.888L30.656 42.04L47.168 14.2H55.68L55.808 59H46.08ZM86.021 43.128V59H75.653V43L58.309 14.2H69.317L81.285 34.104L93.253 14.2H103.429L86.021 43.128ZM143.748 59.768C139.097 59.768 134.895 58.7653 131.14 56.76C127.428 54.7547 124.505 52.0027 122.372 48.504C120.281 44.9627 119.236 40.9947 119.236 36.6C119.236 32.2053 120.281 28.2587 122.372 24.76C124.505 21.2187 127.428 18.4453 131.14 16.44C134.895 14.4347 139.097 13.432 143.748 13.432C148.399 13.432 152.58 14.4347 156.292 16.44C160.004 18.4453 162.927 21.2187 165.06 24.76C167.193 28.2587 168.26 32.2053 168.26 36.6C168.26 40.9947 167.193 44.9627 165.06 48.504C162.927 52.0027 160.004 54.7547 156.292 56.76C152.58 58.7653 148.399 59.768 143.748 59.768ZM143.748 50.936C146.393 50.936 148.783 50.3387 150.916 49.144C153.049 47.9067 154.713 46.2 155.908 44.024C157.145 41.848 157.764 39.3733 157.764 36.6C157.764 33.8267 157.145 31.352 155.908 29.176C154.713 27 153.049 25.3147 150.916 24.12C148.783 22.8827 146.393 22.264 143.748 22.264C141.103 22.264 138.713 22.8827 136.58 24.12C134.447 25.3147 132.761 27 131.524 29.176C130.329 31.352 129.732 33.8267 129.732 36.6C129.732 39.3733 130.329 41.848 131.524 44.024C132.761 46.2 134.447 47.9067 136.58 49.144C138.713 50.3387 141.103 50.936 143.748 50.936ZM240.344 14.2L225.688 59H214.552L204.696 28.664L194.52 59H183.448L168.728 14.2H179.48L189.592 45.688L200.152 14.2H209.752L219.992 45.944L230.424 14.2H240.344ZM285.3 14.2V59H276.788L254.452 31.8V59H244.212V14.2H252.788L275.06 41.4V14.2H285.3ZM310.184 14.2H330.536C335.4 14.2 339.689 15.1387 343.401 17.016C347.155 18.8507 350.057 21.4533 352.104 24.824C354.195 28.1947 355.241 32.12 355.241 36.6C355.241 41.08 354.195 45.0053 352.104 48.376C350.057 51.7467 347.155 54.3707 343.401 56.248C339.689 58.0827 335.4 59 330.536 59H310.184V14.2ZM330.024 50.488C334.504 50.488 338.067 49.2507 340.712 46.776C343.4 44.2587 344.744 40.8667 344.744 36.6C344.744 32.3333 343.4 28.9627 340.712 26.488C338.067 23.9707 334.504 22.712 330.024 22.712H320.552V50.488H330.024ZM382.836 59.768C378.185 59.768 373.982 58.7653 370.228 56.76C366.516 54.7547 363.593 52.0027 361.46 48.504C359.369 44.9627 358.324 40.9947 358.324 36.6C358.324 32.2053 359.369 28.2587 361.46 24.76C363.593 21.2187 366.516 18.4453 370.228 16.44C373.982 14.4347 378.185 13.432 382.836 13.432C387.486 13.432 391.668 14.4347 395.38 16.44C399.092 18.4453 402.014 21.2187 404.148 24.76C406.281 28.2587 407.348 32.2053 407.348 36.6C407.348 40.9947 406.281 44.9627 404.148 48.504C402.014 52.0027 399.092 54.7547 395.38 56.76C391.668 58.7653 387.486 59.768 382.836 59.768ZM382.836 50.936C385.481 50.936 387.87 50.3387 390.004 49.144C392.137 47.9067 393.801 46.2 394.996 44.024C396.233 41.848 396.852 39.3733 396.852 36.6C396.852 33.8267 396.233 31.352 394.996 29.176C393.801 27 392.137 25.3147 390.004 24.12C387.87 22.8827 385.481 22.264 382.836 22.264C380.19 22.264 377.801 22.8827 375.668 24.12C373.534 25.3147 371.849 27 370.612 29.176C369.417 31.352 368.82 33.8267 368.82 36.6C368.82 39.3733 369.417 41.848 370.612 44.024C371.849 46.2 373.534 47.9067 375.668 49.144C377.801 50.3387 380.19 50.936 382.836 50.936ZM434.66 59.768C430.094 59.768 425.956 58.7867 422.244 56.824C418.574 54.8187 415.673 52.0667 413.54 48.568C411.449 45.0267 410.404 41.0373 410.404 36.6C410.404 32.1627 411.449 28.1947 413.54 24.696C415.673 21.1547 418.574 18.4027 422.244 16.44C425.956 14.4347 430.116 13.432 434.724 13.432C438.606 13.432 442.105 14.1147 445.22 15.48C448.377 16.8453 451.022 18.808 453.156 21.368L446.5 27.512C443.47 24.0133 439.716 22.264 435.236 22.264C432.462 22.264 429.988 22.8827 427.812 24.12C425.636 25.3147 423.929 27 422.692 29.176C421.497 31.352 420.9 33.8267 420.9 36.6C420.9 39.3733 421.497 41.848 422.692 44.024C423.929 46.2 425.636 47.9067 427.812 49.144C429.988 50.3387 432.462 50.936 435.236 50.936C439.716 50.936 443.47 49.1653 446.5 45.624L453.156 51.768C451.022 54.3707 448.377 56.3547 445.22 57.72C442.062 59.0853 438.542 59.768 434.66 59.768ZM477.766 59.768C471.366 59.768 466.374 57.9973 462.79 54.456C459.249 50.9147 457.478 45.8587 457.478 39.288V14.2H467.846V38.904C467.846 46.9253 471.174 50.936 477.83 50.936C481.073 50.936 483.547 49.976 485.254 48.056C486.961 46.0933 487.814 43.0427 487.814 38.904V14.2H498.054V39.288C498.054 45.8587 496.262 50.9147 492.678 54.456C489.137 57.9973 484.166 59.768 477.766 59.768ZM547.148 59L547.084 32.12L533.9 54.264H529.228L516.108 32.696V59H506.38V14.2H514.956L531.724 42.04L548.236 14.2H556.748L556.876 59H547.148ZM600.273 50.68V59H565.585V14.2H599.441V22.52H575.889V32.248H596.689V40.312H575.889V50.68H600.273ZM647.69 14.2V59H639.178L616.842 31.8V59H606.602V14.2H615.178L637.45 41.4V14.2H647.69ZM665.649 22.648H651.313V14.2H690.353V22.648H676.017V59H665.649V22.648ZM753.289 14.2L733.897 59H723.657L704.329 14.2H715.529L729.161 46.2L742.985 14.2H753.289ZM783.113 49.4H762.313L758.345 59H747.721L767.689 14.2H777.929L797.961 59H787.081L783.113 49.4ZM779.849 41.528L772.745 24.376L765.641 41.528H779.849ZM819.656 59.768C813.256 59.768 808.264 57.9973 804.68 54.456C801.139 50.9147 799.368 45.8587 799.368 39.288V14.2H809.736V38.904C809.736 46.9253 813.064 50.936 819.72 50.936C822.963 50.936 825.437 49.976 827.144 48.056C828.851 46.0933 829.704 43.0427 829.704 38.904V14.2H839.944V39.288C839.944 45.8587 838.152 50.9147 834.568 54.456C831.027 57.9973 826.056 59.768 819.656 59.768ZM848.27 14.2H858.638V50.552H881.102V59H848.27V14.2ZM890.067 22.648H875.731V14.2H914.771V22.648H900.435V59H890.067V22.648Z" fill="#0F3658"/>
<path d="M338.678 89.2H340.922V120H338.678V89.2ZM318.086 120H315.842V89.2H318.086V120ZM338.942 105.348H317.822V103.368H338.942V105.348ZM350.578 103.368H367.254V105.348H350.578V103.368ZM350.842 117.976H369.85V120H348.598V89.2H369.19V91.224H350.842V117.976ZM369.804 120L383.972 89.2H386.216L400.384 120H397.964L384.588 90.608H385.556L372.224 120H369.804ZM374.996 111.332L375.744 109.44H394.18L394.928 111.332H374.996ZM402.895 120V89.2H405.139V117.976H422.871V120H402.895ZM428.571 120V91.224H417.483V89.2H441.903V91.224H430.815V120H428.571ZM467.224 89.2H469.468V120H467.224V89.2ZM446.632 120H444.388V89.2H446.632V120ZM467.488 105.348H446.368V103.368H467.488V105.348ZM490.167 120.22C487.879 120.22 485.753 119.839 483.787 119.076C481.851 118.284 480.165 117.184 478.727 115.776C477.29 114.368 476.175 112.725 475.383 110.848C474.591 108.941 474.195 106.859 474.195 104.6C474.195 102.341 474.591 100.273 475.383 98.396C476.175 96.4893 477.29 94.832 478.727 93.424C480.194 92.016 481.895 90.9307 483.831 90.168C485.767 89.376 487.879 88.98 490.167 88.98C492.338 88.98 494.362 89.332 496.239 90.036C498.146 90.74 499.774 91.8107 501.123 93.248L499.715 94.7C498.395 93.4093 496.929 92.4853 495.315 91.928C493.731 91.3413 492.045 91.048 490.255 91.048C488.29 91.048 486.457 91.3853 484.755 92.06C483.083 92.7347 481.617 93.688 480.355 94.92C479.123 96.152 478.155 97.5893 477.451 99.232C476.777 100.875 476.439 102.664 476.439 104.6C476.439 106.536 476.777 108.325 477.451 109.968C478.155 111.611 479.123 113.048 480.355 114.28C481.617 115.512 483.083 116.465 484.755 117.14C486.457 117.815 488.29 118.152 490.255 118.152C492.045 118.152 493.731 117.873 495.315 117.316C496.929 116.729 498.395 115.776 499.715 114.456L501.123 115.908C499.774 117.345 498.146 118.431 496.239 119.164C494.362 119.868 492.338 120.22 490.167 120.22ZM528.396 89.2H530.64V120H528.396V89.2ZM507.804 120H505.56V89.2H507.804V120ZM528.66 105.348H507.54V103.368H528.66V105.348ZM540.296 103.368H556.972V105.348H540.296V103.368ZM540.56 117.976H559.568V120H538.316V89.2H558.908V91.224H540.56V117.976ZM577.564 120.22C575.276 120.22 573.15 119.839 571.184 119.076C569.248 118.284 567.562 117.184 566.124 115.776C564.687 114.368 563.572 112.725 562.78 110.848C561.988 108.941 561.592 106.859 561.592 104.6C561.592 102.341 561.988 100.273 562.78 98.396C563.572 96.4893 564.687 94.832 566.124 93.424C567.591 92.016 569.292 90.9307 571.228 90.168C573.164 89.376 575.276 88.98 577.564 88.98C579.735 88.98 581.759 89.332 583.636 90.036C585.543 90.74 587.171 91.8107 588.52 93.248L587.112 94.7C585.792 93.4093 584.326 92.4853 582.712 91.928C581.128 91.3413 579.442 91.048 577.652 91.048C575.687 91.048 573.854 91.3853 572.152 92.06C570.48 92.7347 569.014 93.688 567.752 94.92C566.52 96.152 565.552 97.5893 564.848 99.232C564.174 100.875 563.836 102.664 563.836 104.6C563.836 106.536 564.174 108.325 564.848 109.968C565.552 111.611 566.52 113.048 567.752 114.28C569.014 115.512 570.48 116.465 572.152 117.14C573.854 117.815 575.687 118.152 577.652 118.152C579.442 118.152 581.128 117.873 582.712 117.316C584.326 116.729 585.792 115.776 587.112 114.456L588.52 115.908C587.171 117.345 585.543 118.431 583.636 119.164C581.759 119.868 579.735 120.22 577.564 120.22ZM594.892 112.212L594.804 109.396L614.428 89.2H617.156L603.428 103.412L602.152 104.776L594.892 112.212ZM592.956 120V89.2H595.2V120H592.956ZM615.352 120L601.492 104.16L603.032 102.532L618.08 120H615.352Z" fill="#1072BA"/>
</g>
<defs>
<clipPath id="clip0_3935_1411">
<rect width="930" height="128" fill="white"/>
</clipPath>
</defs>
</svg>
