<svg width="265" height="275" viewBox="0 0 265 275" fill="none" xmlns="http://www.w3.org/2000/svg">
<g clip-path="url(#clip0)">
<path d="M130.63 201V219.89H134.41V201C133.62 201 132.84 201.06 132.04 201.06C131.57 201.07 131.1 201 130.63 201Z" fill="#0F3658"/>
<path d="M134.41 54.58V34.35H130.63V54.56C131.1 54.56 131.57 54.56 132.04 54.56C132.84 54.52 133.62 54.56 134.41 54.58Z" fill="#0F3658"/>
<path d="M205.31 127.79C205.31 128.21 205.31 128.61 205.31 129.02H225.31V125.24H205.25C205.27 126.09 205.31 126.94 205.31 127.79Z" fill="#0F3658"/>
<path d="M58.83 125.24H39.74V129H58.8C58.8 128.59 58.8 128.19 58.8 127.77C58.77 126.94 58.8 126.09 58.83 125.24Z" fill="#0F3658"/>
<path d="M45.15 27L0.679996 40.74C0.679996 40.74 -17.38 208.74 132.45 274.53C132.45 273.83 132.45 273.15 132.45 272.47C132.45 273.15 132.45 273.83 132.45 274.53C282.3 208.79 264.24 40.74 264.24 40.74L219.44 26.89L218.22 26.51L132.47 0C132.47 0 132.47 0.53 132.47 1.54C132.47 0.54 132.47 0 132.47 0L46.53 26.56L45.15 27ZM132.46 244.42C106.71 233.12 87.31 218 72.72 201.16L87.72 186.16C82.2263 181.978 77.3426 177.051 73.21 171.52L60.13 184.6C22.52 127.91 29.59 61.91 29.59 61.91L47.26 56.45L74 83.17C78.2075 77.698 83.1625 72.8439 88.72 68.75L69.53 49.56L132.46 30.1L195.22 49.5L175.72 69C181.257 73.121 186.186 78.0024 190.36 83.5L217.49 56.38L235.34 61.9C235.34 61.9 242.42 128 204.7 184.74L191.08 171.12C186.987 176.678 182.137 181.636 176.67 185.85L192.1 201.28C177.52 218.02 158.16 233.15 132.47 244.41" fill="#1072BA"/>
<path d="M132 195.05C118.697 195.05 105.693 191.105 94.6323 183.715C83.5715 176.324 74.9506 165.819 69.8599 153.529C64.7691 141.239 63.4371 127.715 66.0324 114.668C68.6276 101.621 75.0335 89.6365 84.44 80.23C93.8465 70.8235 105.831 64.4176 118.878 61.8224C131.925 59.2271 145.449 60.5591 157.739 65.6499C170.029 70.7406 180.534 79.3615 187.925 90.4223C195.315 101.483 199.26 114.487 199.26 127.79C199.241 145.623 192.149 162.72 179.54 175.33C166.93 187.939 149.833 195.031 132 195.05ZM132 70.05C120.58 70.05 109.416 73.4366 99.9203 79.7816C90.4248 86.1266 83.0242 95.145 78.6542 105.696C74.2843 116.247 73.1415 127.857 75.3702 139.058C77.5989 150.259 83.0991 160.547 91.1752 168.622C99.2513 176.697 109.54 182.195 120.742 184.422C131.943 186.649 143.553 185.504 154.103 181.132C164.654 176.76 173.671 169.358 180.014 159.861C186.357 150.365 189.742 139.2 189.74 127.78C189.719 112.475 183.628 97.8027 172.804 86.9821C161.979 76.1615 147.305 70.0759 132 70.06V70.05Z" fill="#0F3658"/>
<path d="M152 117.41C149.19 116.67 146.49 116.85 143.58 116.84C143.58 115.21 143.58 113.6 143.58 112C143.58 109.09 143.66 106.17 142.23 103.52C140.1 99.52 136.96 97.11 132.32 96.64C130.626 96.4778 128.917 96.6694 127.301 97.2028C125.685 97.7361 124.197 98.5995 122.933 99.7381C121.668 100.877 120.654 102.266 119.955 103.817C119.255 105.369 118.886 107.048 118.87 108.75C118.87 111.38 118.87 114.01 118.87 116.82C116.03 116.9 113.31 116.6 110.49 117.44C110.67 111.21 109.59 104.98 112.8 99.23C114.371 96.1916 116.68 93.597 119.516 91.6853C122.353 89.7735 125.624 88.6059 129.03 88.29C134.396 87.6957 139.781 89.2338 144.024 92.5729C148.266 95.9119 151.027 100.784 151.71 106.14C152.25 109.85 151.83 113.57 152 117.41Z" fill="#1072BA"/>
<path d="M153 132.24H161.79C161.819 131.775 161.792 131.308 161.71 130.85C161.322 128.67 160.421 126.614 159.08 124.853C157.739 123.091 155.998 121.674 154 120.72L151.14 121.62C127.14 129.19 110.96 141.28 103.08 157.57L102.27 159.25C103.608 161.762 105.612 163.857 108.063 165.305C110.513 166.753 113.314 167.499 116.16 167.46C126.46 167.38 136.76 167.46 147.07 167.46C148.34 167.436 149.601 167.244 150.82 166.89C153.492 166.122 155.904 164.639 157.796 162.602C159.689 160.566 160.99 158.051 161.56 155.33H153C152.919 155.33 152.839 155.314 152.764 155.283C152.69 155.251 152.622 155.206 152.565 155.148C152.508 155.09 152.464 155.022 152.434 154.947C152.403 154.871 152.389 154.791 152.39 154.71V151.28C152.389 151.199 152.403 151.118 152.433 151.042C152.463 150.966 152.508 150.897 152.564 150.839C152.621 150.78 152.689 150.733 152.763 150.701C152.838 150.669 152.919 150.651 153 150.65H161.78C161.78 149.15 161.71 147.65 161.7 146.13H153C152.919 146.13 152.839 146.114 152.764 146.083C152.69 146.051 152.622 146.006 152.565 145.948C152.508 145.89 152.464 145.822 152.434 145.747C152.403 145.671 152.389 145.591 152.39 145.51V142.08C152.389 141.999 152.403 141.919 152.434 141.843C152.464 141.768 152.508 141.7 152.565 141.642C152.622 141.584 152.69 141.539 152.764 141.507C152.839 141.476 152.919 141.46 153 141.46H161.72C161.72 139.96 161.72 138.46 161.72 136.94H153C152.919 136.94 152.839 136.924 152.764 136.893C152.69 136.861 152.622 136.816 152.565 136.758C152.508 136.7 152.464 136.632 152.434 136.557C152.403 136.481 152.389 136.401 152.39 136.32V132.88C152.386 132.797 152.399 132.715 152.428 132.637C152.456 132.56 152.501 132.489 152.558 132.429C152.615 132.369 152.683 132.322 152.759 132.289C152.835 132.257 152.917 132.24 153 132.24ZM135 143.71C134.779 143.925 134.608 144.186 134.499 144.475C134.39 144.763 134.346 145.072 134.37 145.38C134.455 146.857 134.385 148.338 134.16 149.8C134.028 150.563 133.6 151.244 132.969 151.693C132.338 152.143 131.555 152.325 130.79 152.2C130.055 152.105 129.378 151.75 128.881 151.2C128.384 150.65 128.1 149.941 128.08 149.2C128.08 148.58 128.08 147.95 128.08 147.01C128.197 146.293 128.146 145.558 127.931 144.864C127.716 144.17 127.342 143.535 126.84 143.01C126.108 142.141 125.707 141.041 125.707 139.905C125.707 138.769 126.108 137.669 126.84 136.8C127.514 135.865 128.472 135.173 129.572 134.829C130.672 134.485 131.853 134.506 132.94 134.89C133.994 135.227 134.911 135.896 135.552 136.797C136.194 137.699 136.527 138.784 136.5 139.89C136.551 140.598 136.443 141.309 136.184 141.97C135.924 142.631 135.52 143.226 135 143.71Z" fill="#0F3658"/>
<path d="M139.32 121.46C122.55 128.36 110.24 137.9 102.58 149.92V149.14C102.58 144.06 102.58 138.79 102.58 133.61C102.538 132.016 102.819 130.429 103.405 128.946C103.991 127.463 104.871 126.114 105.992 124.979C107.113 123.844 108.451 122.948 109.927 122.343C111.403 121.738 112.985 121.438 114.58 121.46H114.7C118.53 121.46 122.41 121.46 126.16 121.46H139.31H139.32Z" fill="#1072BA"/>
</g>
<defs>
<clipPath id="clip0">
<rect width="264.92" height="274.53" fill="white"/>
</clipPath>
</defs>
</svg>
